<?xml version="1.0" encoding="UTF-8" standalone="no"?>
<svg width="80px" height="88px" viewBox="0 0 80 88" version="1.1" xmlns="http://www.w3.org/2000/svg" xmlns:xlink="http://www.w3.org/1999/xlink">
    <!-- Generator: Sketch 40.3 (33839) - http://www.bohemiancoding.com/sketch -->
    <title>Group</title>
    <desc>Created with Sketch.</desc>
    <defs></defs>
    <g id="Page-1" stroke="none" stroke-width="1" fill="none" fill-rule="evenodd">
        <g id="Group" fill="#8CC84B">
            <path d="M36.4075472,1.11886793 C38.5830188,-0.126415094 41.4169812,-0.132075472 43.5905659,1.11886793 C54.526415,7.29811322 65.4660378,13.4679245 76.4,19.6509434 C78.4566037,20.809434 79.8320756,23.0981132 79.8113206,25.4679245 L79.8113206,62.6452831 C79.826415,65.1132075 78.3150944,67.4566037 76.1452831,68.5886794 C65.2452831,74.7339622 54.3509434,80.8867925 43.4528303,87.0320756 C41.2320756,88.3018869 38.3415094,88.2037734 36.1905659,86.8301888 C32.9226416,84.9358491 29.6490566,83.0509434 26.3811321,81.1584906 C25.7132076,80.7603775 24.9603773,80.4433962 24.4886793,79.7962266 C24.9056604,79.2339622 25.6509434,79.1641509 26.2566038,78.9188678 C27.6207547,78.4849056 28.8735849,77.7886794 30.1264151,77.1132075 C30.4433962,76.8962266 30.8301887,76.9792453 31.1339622,77.173585 C33.9283019,78.7754716 36.6981131,80.4245284 39.5018869,82.0113206 C40.1,82.3566038 40.7056603,81.8981131 41.2169813,81.6132075 C51.9132075,75.5679244 62.6226416,69.5452831 73.3169812,63.4981131 C73.7132075,63.3075472 73.9320756,62.8867925 73.9,62.4528303 C73.9075472,50.1886794 73.9018869,37.9226416 73.9037734,25.6584906 C73.9490566,25.1660378 73.6641509,24.7132076 73.2188678,24.5113207 C62.3566037,18.3943396 51.5,12.2679245 40.6396225,6.14905659 C40.2509434,5.88490566 39.7490566,5.88301888 39.3603775,6.14716981 C28.5,12.2679245 17.645283,18.4 6.78490566,24.5169811 C6.34150944,24.7188679 6.04339622,25.1641509 6.09622641,25.6584906 C6.09811322,37.9226416 6.09622641,50.1886794 6.09622641,62.4547169 C6.05849056,62.8886794 6.29245284,63.3 6.68679244,63.4867925 C9.58490566,65.1301888 12.4867924,66.7622641 15.3867924,68.4 C17.0207547,69.2792453 19.0264151,69.8018869 20.8264151,69.1283019 C22.4150943,68.5584906 23.5283019,66.9377359 23.4981132,65.2509434 C23.5132076,53.0584906 23.490566,40.8641509 23.509434,28.6735849 C23.4698113,28.1320755 23.9830189,27.6849057 24.509434,27.7358491 C25.9018868,27.7264151 27.2962264,27.7169811 28.6886792,27.7396227 C29.2698113,27.7264151 29.6698113,28.309434 29.5981132,28.854717 C29.5924528,41.1245284 29.6132076,53.3943397 29.5886792,65.6641509 C29.5924528,68.9339622 28.2490566,72.4924528 25.2245283,74.0924528 C21.4981132,76.0226416 16.8924528,75.6132075 13.2113208,73.7622641 C10.0245283,72.1716981 6.98301887,70.2943397 3.85283019,68.5905659 C1.67735849,67.4641509 0.173584906,65.1113206 0.188679245,62.6452831 L0.188679245,25.4679245 C0.166037736,23.0490566 1.59622642,20.7188679 3.71698113,19.5773585 C14.6150943,13.4264151 25.5113208,7.27169813 36.4075472,1.11886793 L36.4075472,1.11886793 L36.4075472,1.11886793 Z" id="Shape"></path>
            <path d="M45.9150944,26.8716981 C50.6679244,26.5660378 55.7566037,26.690566 60.0339622,29.0320755 C63.3452831,30.8264151 65.1811322,34.5924528 65.2396225,38.2716981 C65.1471697,38.7679244 64.6283019,39.0415094 64.1547169,39.0075472 C62.7754716,39.0056603 61.3962266,39.026415 60.0169812,38.9981131 C59.4320756,39.0207547 59.0924528,38.4811322 59.0188678,37.9641509 C58.6226416,36.2037734 57.6622641,34.4603775 56.0056603,33.6113206 C53.4622641,32.3377359 50.5132075,32.4018869 47.7396225,32.4283019 C45.7150944,32.5358491 43.5377359,32.7113206 41.8226416,33.9018869 C40.5056603,34.8037734 40.1056603,36.6245284 40.5754716,38.0905659 C41.0188678,39.1433963 42.2339622,39.4830187 43.2283019,39.7962266 C48.9566037,41.2943397 55.026415,41.1452831 60.6452831,43.1169813 C62.9716981,43.9207547 65.2471697,45.4830187 66.0433963,47.9188678 C67.0849056,51.1830188 66.6283019,55.0849056 64.3056603,57.7056603 C62.4226416,59.8622641 59.6792453,61.0358491 56.9433962,61.673585 C53.3037734,62.4849056 49.526415,62.5056603 45.8301887,62.1452831 C42.3547169,61.7490566 38.7377359,60.8358491 36.0547169,58.4679244 C33.7603775,56.4754716 32.6396225,53.3716981 32.7509434,50.3754716 C32.7773584,49.8698112 33.2811322,49.5169813 33.7660378,49.5584906 C35.1547169,49.5471697 36.5433963,49.5433963 37.9320756,49.5603775 C38.4867925,49.5207547 38.8981131,50 38.926415,50.5226416 C39.1830188,52.2 39.8132075,53.9603775 41.2754716,54.9547169 C44.0981131,56.7754716 47.6396225,56.6509434 50.8716981,56.7018869 C53.5490566,56.5830188 56.5547169,56.5471697 58.7396225,54.7773584 C59.8924528,53.7679244 60.2339622,52.0792453 59.9226416,50.626415 C59.5849056,49.4 58.3018869,48.8283019 57.2,48.4547169 C51.5452831,46.6660378 45.4075472,47.3150944 39.8075472,45.2924528 C37.5339622,44.4886794 35.3358491,42.9698113 34.4622641,40.6339622 C33.2433962,37.3283019 33.8018869,33.2396225 36.3679244,30.7075472 C38.8698112,28.1886793 42.4811322,27.2188679 45.9150944,26.8716981 L45.9150944,26.8716981 L45.9150944,26.8716981 Z" id="Shape"></path>
        </g>
    </g>
</svg>