<?xml version="1.0" encoding="UTF-8" standalone="no"?>
<svg width="79px" height="86px" viewBox="0 0 79 86" version="1.1" xmlns="http://www.w3.org/2000/svg" xmlns:xlink="http://www.w3.org/1999/xlink">
    <!-- Generator: Sketch 40.3 (33839) - http://www.bohemiancoding.com/sketch -->
    <title>Group</title>
    <desc>Created with Sketch.</desc>
    <defs>
        <path d="M63.5019455,20.1089494 L63.5019455,20.0155642 L65.5564202,9.68093385 C65.5564202,9.68093385 60.9805447,-0.871595331 45.6031128,0.404669261 C30.2568093,1.68093385 28.3268482,5.22957198 25.8054475,9.46303502 L27.2996109,16.2178988 L24.4357977,18.0544747 C24.4357977,18.0544747 23.4085603,14.9727626 21.7898833,14.848249 C21.7898833,14.848249 24.1867704,11.3929961 22.4747082,8.99610895 C20.7626459,6.59922179 11.5797665,6.81712062 8.0311284,18.9571984 C8.0311284,18.9571984 7.56420233,15.2840467 6.07003891,15.2840467 C4.57587549,15.2840467 -0.93385214,17.2762646 0.560311284,23.0038911 C2.05447471,28.7315175 7.22178988,30.4435798 8.93385214,31.1595331 C8.93385214,31.1595331 9.74319066,32.1867704 9.40077821,33.5564202 C9.21400778,34.2723735 5.07392996,47.1284047 8.52918288,59.0194553 C11.1128405,67.8910506 19.4241245,75.6108949 19.4241245,75.6108949 C25.7743191,81.6498054 34.3035019,85.3540856 43.7042802,85.3540856 C63.2217899,85.3540856 79.0661479,69.385214 79.0661479,49.6809339 C79.0972763,37.385214 72.9027237,26.5214008 63.5019455,20.1089494 L63.5019455,20.1089494 L63.5019455,20.1089494 Z" id="path-1"></path>
    </defs>
    <g id="Page-1" stroke="none" stroke-width="1" fill="none" fill-rule="evenodd">
        <g id="Group" transform="translate(-1.000000, -1.000000)">
            <path d="M43.7042802,86.2879377 C23.688716,86.2879377 7.40856031,69.8832685 7.40856031,49.6809339 C7.40856031,29.5097276 23.688716,13.07393 43.7042802,13.07393 C63.7198444,13.07393 80,29.5097276 80,49.6809339 C80,69.8832685 63.7198444,86.2879377 43.7042802,86.2879377 L43.7042802,86.2879377 L43.7042802,86.2879377 Z M43.7042802,14.9105058 C24.7159533,14.9105058 9.24513619,30.5058366 9.24513619,49.6809339 C9.24513619,68.8560311 24.7159533,84.4513619 43.7042802,84.4513619 C62.692607,84.4513619 78.1634241,68.8560311 78.1634241,49.6809339 C78.1634241,30.5058366 62.7237354,14.9105058 43.7042802,14.9105058 L43.7042802,14.9105058 L43.7042802,14.9105058 Z" id="Shape" fill="#020202"></path>
            <g id="Clipped">
                <mask id="mask-2" fill="white">
                    <use xlink:href="#path-1"></use>
                </mask>
                <g id="SVGID_1"></g>
                <g id="Group" mask="url(#mask-2)">
                    <g transform="translate(1.867704, 1.245136)">
                        <path d="M54.3190661,61.4474708 C54.3190661,61.4474708 80.0311284,65.5875486 82.8638132,101.540856 C82.8638132,101.540856 78.0700389,104.59144 73.0583658,104.809339 C73.0583658,104.809339 73.4941634,77.1361868 54.3190661,61.4474708 L54.3190661,61.4474708 L54.3190661,61.4474708 Z" id="Shape" fill="#050505"></path>
                        <path d="M79.6264591,85.6964981 C78.2256809,86.381323 75.2373541,87.5642023 70.6303502,88.0311284 C70.7859922,88.6225681 70.9416342,89.2140078 71.0972763,89.8054475 C72.9338521,89.5252918 76.233463,88.8404669 80.1867704,87.2840467 C80,86.7548638 79.8132296,86.2256809 79.6264591,85.6964981 L79.6264591,85.6964981 L79.6264591,85.6964981 Z M69.3540856,83.922179 C69.540856,84.5136187 69.7587549,85.07393 69.9143969,85.6653696 C71.5953307,85.4785992 75.3929961,84.9494163 78.7548638,83.4552529 C78.5058366,82.8949416 78.2879377,82.3346304 78.0389105,81.8054475 C76.7937743,82.3657588 74.0544747,83.3618677 69.3540856,83.922179 L69.3540856,83.922179 L69.3540856,83.922179 Z M82.8638132,101.540856 C82.614786,98.2412451 82.1478599,95.2217899 81.5564202,92.4513619 C79.5953307,93.6653696 76.4824903,95.1284047 72.2801556,95.688716 C73.151751,101.136187 73.0894942,104.809339 73.0894942,104.809339 C78.0700389,104.59144 82.8638132,101.540856 82.8638132,101.540856 L82.8638132,101.540856 L82.8638132,101.540856 Z" id="Shape" fill="#DD002A"></path>
                        <ellipse id="Oval" fill="#F4CF8C" cx="27.7976654" cy="34.2101167" rx="5.50972763" ry="5.50972763"></ellipse>
                        <ellipse id="Oval" fill="#F4CF8C" cx="27.7976654" cy="34.2101167" rx="5.50972763" ry="5.50972763"></ellipse>
                        <path d="M22.2879377,34.2101167 C22.2879377,34.3657588 22.2879377,34.5525292 22.3190661,34.7081712 C22.7237354,34.5525292 23.1284047,34.3346304 23.5642023,34.0233463 C26.1789883,32.3424125 26.2412451,30.3501946 25.6809339,29.1050584 C23.688716,29.9766537 22.2879377,31.9377432 22.2879377,34.2101167 L22.2879377,34.2101167 Z" id="Shape" fill="#F4CF8C"></path>
                        <circle id="Oval" fill="#F4CF8C" cx="24.9649805" cy="34.2101167" r="2.6770428"></circle>
                        <path d="M24.9649805,31.5642023 C24.8715953,31.5642023 24.7470817,31.5642023 24.6536965,31.5953307 C25.6809339,31.7509728 26.4902724,32.8715953 26.4902724,34.2412451 C26.4902724,35.6108949 25.6809339,36.7315175 24.6536965,36.8871595 C24.7470817,36.8871595 24.8715953,36.9182879 24.9649805,36.9182879 C26.4280156,36.9182879 27.6420233,35.7354086 27.6420233,34.2412451 C27.6108949,32.7470817 26.4280156,31.5642023 24.9649805,31.5642023 L24.9649805,31.5642023 L24.9649805,31.5642023 Z" id="Shape" fill="#D8AF6F"></path>
                        <path d="M24.6225681,31.5953307 C24.5291829,31.5953307 24.4669261,31.5642023 24.3735409,31.5642023 C23.2217899,31.5642023 22.2879377,32.7470817 22.2879377,34.2412451 C22.2879377,32.8715953 23.3151751,31.7509728 24.6225681,31.5953307 L24.6225681,31.5953307 Z M22.2879377,34.2101167 C22.2879377,35.6731518 23.2217899,36.8871595 24.3735409,36.8871595 C24.4669261,36.8871595 24.5291829,36.8871595 24.6225681,36.8560311 C23.3151751,36.7003891 22.2879377,35.5797665 22.2879377,34.2101167 L22.2879377,34.2101167 Z" id="Shape" fill="#F4CF8C"></path>
                        <ellipse id="Oval" fill="#F4CF8C" cx="60.077821" cy="34.2101167" rx="5.50972763" ry="5.50972763"></ellipse>
                        <ellipse id="Oval" fill="#F4CF8C" cx="60.077821" cy="34.2101167" rx="5.50972763" ry="5.50972763"></ellipse>
                        <circle id="Oval" fill="#F4CF8C" cx="62.9105058" cy="34.2101167" r="2.6770428"></circle>
                        <path d="M61.385214,34.2101167 C61.385214,32.8404669 62.1945525,31.7198444 63.2217899,31.5642023 C63.1284047,31.5642023 63.0038911,31.5330739 62.9105058,31.5330739 C61.4474708,31.5330739 60.233463,32.7159533 60.233463,34.2101167 C60.233463,35.6731518 61.4163424,36.8871595 62.9105058,36.8871595 C63.0038911,36.8871595 63.1284047,36.8871595 63.2217899,36.8560311 C62.1945525,36.7003891 61.385214,35.5797665 61.385214,34.2101167 L61.385214,34.2101167 Z" id="Shape" fill="#D8AF6F"></path>
                        <path d="M65.5875486,34.2101167 C65.5875486,32.7470817 64.6536965,31.5330739 63.5019455,31.5330739 C63.4085603,31.5330739 63.3463035,31.5330739 63.2529183,31.5642023 C64.5603113,31.7509728 65.5875486,32.8715953 65.5875486,34.2101167 L65.5875486,34.2101167 Z M63.2529183,36.8560311 C63.3463035,36.8560311 63.4085603,36.8871595 63.5019455,36.8871595 C64.6536965,36.8871595 65.5875486,35.7042802 65.5875486,34.2101167 C65.5875486,35.5797665 64.5603113,36.7003891 63.2529183,36.8560311 L63.2529183,36.8560311 L63.2529183,36.8560311 Z M12.3891051,37.7587549 C12.3891051,37.7587549 17.6498054,38.4435798 16.9649805,33.1828794 C16.9649805,33.1828794 18.8015564,36.0466926 22.9105058,33.4007782 C27.0194553,30.7859922 24.8404669,27.3307393 23.7198444,27.2373541 C22.5680934,27.1128405 20.9805447,25.8677043 16.9649805,29.9766537 L14.692607,24.7159533 L17.307393,21.2918288 C17.307393,21.2918288 17.6809339,26.2412451 21.4785992,24.8404669 C25.307393,23.4396887 22.4435798,15.0038911 19.0194553,15.0038911 L12.8560311,18.5525292 C12.8560311,18.5525292 14.0077821,15.3463035 19.0194553,12.7315175 C19.0194553,12.7315175 20.9494163,11.5797665 19.8287938,8.71595331 C18.6770428,5.85214008 7.81322957,7.90661479 6.10116732,21.8521401 C6.10116732,21.8521401 4.17120623,20.0155642 4.60700389,17.151751 C5.04280156,14.2879377 -0.996108949,15.0972763 0.155642023,21.2607004 C1.307393,27.4241245 7.25291829,28.7003891 7.25291829,28.7003891 C7.25291829,28.7003891 9.27626459,31.9688716 7.81322957,35.6731518 C7.81322957,35.7042802 10.1167315,38.536965 12.3891051,37.7587549 L12.3891051,37.7587549 Z M22.9105058,33.4007782 C27.0194553,30.7859922 24.8404669,27.3307393 23.7198444,27.2373541 C23.0038911,27.1750973 22.1322957,26.6770428 20.6381323,27.2373541 L21.9766537,30.0077821 C21.9766537,30.0077821 21.6964981,33.9610895 17.2762646,32.9649805 C17.2762646,32.9649805 17.2451362,33.1206226 17.1206226,33.3696498 C17.618677,33.9610895 19.4552529,35.6108949 22.9105058,33.4007782 L22.9105058,33.4007782 Z M16.9961089,33.5564202 C16.311284,34.770428 13.9455253,37.1361868 8.21789883,34.2101167 C8.12451362,34.7392996 8,35.1750973 7.81322957,35.7042802 C7.81322957,35.7042802 10.0856031,38.5680934 12.3891051,37.7587549 C12.3891051,37.7587549 17.4007782,38.4124514 16.9961089,33.5564202 L16.9961089,33.5564202 Z M17.307393,21.2918288 C17.307393,21.2918288 17.6809339,26.2412451 21.4785992,24.8404669 C23.0350195,24.2801556 23.4708171,22.5058366 23.2217899,20.6381323 C22.2568093,21.6342412 19.3307393,24.1245136 18.1789883,18.8326848 L12.9494163,24.9338521 L8.80933852,27.3307393 L13.9766537,26.0233463 L16.9961089,29.9455253 L14.7237354,24.6848249 L17.307393,21.2918288 L17.307393,21.2918288 Z M13.7276265,17.0583658 C14.5680934,15.8754864 16.1867704,14.1945525 19.0505837,12.7003891 C19.0505837,12.7003891 20.9805447,11.5486381 19.8599222,8.6848249 C19.8287938,8.62256809 19.8287938,8.59143969 19.7976654,8.52918288 C19.5175097,9.40077821 18.9883268,10.4280156 17.9610895,11.1439689 C15.844358,12.6070039 8.28015564,17.8677043 10.6770428,25.8054475 C10.6459144,25.8677043 9.64980545,20.9494163 13.7276265,17.0583658 L13.7276265,17.0583658 Z M6.0077821,21.7587549 C5.60311284,21.3229572 4.23346304,19.6420233 4.6381323,17.1828794 C4.82490272,16.0622568 3.9844358,15.5019455 2.98832685,15.6264591 C2.77042802,18.6770428 3.20622568,24.9027237 9.24513619,26.6770428 C9.24513619,26.6770428 6.97276265,25.618677 6.0077821,21.7587549 L6.0077821,21.7587549 Z" id="Shape" fill="#F4CF8C"></path>
                        <path d="M7.81322957,35.7042802 L12.3891051,37.7587549 C12.3891051,37.7587549 8.28015564,60.3891051 29.7587549,61.3229572 C29.7587549,61.3229572 29.9143969,75.8910506 16.6536965,75.6420233 C16.6536965,75.6420233 -0.871595331,61.6964981 7.81322957,35.7042802 L7.81322957,35.7042802 Z" id="Shape" fill="#050505"></path>
                        <path d="M13.2918288,50.0544747 C13.229572,49.8365759 13.1673152,49.6498054 13.1050584,49.4319066 L13.1050584,49.4319066 C12.077821,49.9610895 9.36964981,51.1439689 5.44747082,51.1128405 C5.47859922,51.6108949 5.50972763,52.1089494 5.54085603,52.6070039 C7.50194553,52.6070039 10.770428,52.3579767 13.6031128,50.8326848 L13.6031128,50.8015564 C13.5097276,50.5836576 13.4474708,50.3657588 13.385214,50.1478599 L13.2918288,50.0544747 L13.2918288,50.0544747 Z M14.7548638,53.2918288 C14.6614786,53.1050584 14.536965,52.9182879 14.4435798,52.7315175 L14.4435798,52.7315175 C13.2607004,53.2918288 10.0233463,54.5992218 5.72762646,54.6303502 C5.78988327,55.1906615 5.88326848,55.7509728 5.9766537,56.2801556 C8.31128405,56.2801556 11.7354086,55.8754864 15.0972763,53.9143969 L15.0972763,53.8832685 C14.9727626,53.6964981 14.8793774,53.5097276 14.7548638,53.3229572 L14.7548638,53.2918288 L14.7548638,53.2918288 L14.7548638,53.2918288 Z M7.81322957,35.7042802 C6.56809339,39.0972763 6.03891051,42.2412451 5.63424125,45.1673152 C7.81322957,45.5719844 9.9922179,45.6342412 12.1400778,44.233463 C11.8599222,40.5603113 12.3891051,37.7587549 12.3891051,37.7587549 L7.81322957,35.7042802 L7.81322957,35.7042802 Z" id="Shape" fill="#DD002A"></path>
                        <path d="M14.4747082,93.7587549 L42.4902724,129.867704 C42.4902724,129.867704 43.5797665,130.272374 44.0466926,129.712062 L44.0466926,93.7587549 L14.4747082,93.7587549 L14.4747082,93.7587549 Z M73.4007782,93.7587549 L45.385214,129.867704 C45.385214,129.867704 44.2957198,130.272374 43.8287938,129.712062 L43.8287938,93.7587549 L73.4007782,93.7587549 L73.4007782,93.7587549 Z M56.8404669,60.7315175 L31.0661479,60.7315175 C3.61089494,72.7782101 9.9922179,118.256809 9.9922179,118.256809 L44.1089494,118.256809 L44.1089494,97.463035 L46.0077821,118.256809 L77.8832685,118.256809 C77.8832685,118.225681 84.2957198,72.7782101 56.8404669,60.7315175 L56.8404669,60.7315175 L56.8404669,60.7315175 Z" id="Shape" fill="#050505"></path>
                        <path d="M79.9688716,103.035019 C79.5953307,93.2607004 77.6342412,80.7159533 71.0350195,71.2840467 C63.1595331,62.8793774 54.3190661,61.4474708 54.3190661,61.4474708 C73.4941634,77.1361868 73.0583658,104.809339 73.0583658,104.809339 C75.6108949,104.684825 78.1322957,103.844358 79.9688716,103.035019 L79.9688716,103.035019 Z" id="Shape" fill="#930023"></path>
                        <path d="M11.0817121,89.0583658 C10.9883268,89.463035 10.8949416,89.8988327 10.8326848,90.3035019 C18.4280156,87.5019455 30.4124514,85.6964981 43.922179,85.6964981 C57.4319066,85.6964981 69.4474708,87.5019455 77.0116732,90.3035019 C76.9182879,89.8988327 76.8560311,89.463035 76.7626459,89.0583658 C69.1673152,86.3190661 57.2762646,84.5447471 43.922179,84.5447471 C30.5680934,84.5447471 18.6770428,86.3190661 11.0817121,89.0583658 L11.0817121,89.0583658 Z M12.6070039,83.2996109 C12.4824903,83.6731518 12.3891051,84.0466926 12.2645914,84.4202335 C19.8910506,81.8988327 31.2529183,80.311284 43.9533074,80.311284 C56.6536965,80.311284 68.0155642,81.8988327 75.6420233,84.4202335 C75.5175097,84.0466926 75.4241245,83.6731518 75.2996109,83.2996109 C67.6731518,80.8404669 56.4669261,79.3151751 43.9533074,79.3151751 C31.4396887,79.3151751 20.2023346,80.8715953 12.6070039,83.2996109 L12.6070039,83.2996109 Z M23.2529183,65.7120623 C17.3696498,73.2762646 18.0233463,82.5214008 18.0233463,82.5214008 L19.6108949,81.8054475 C19.1128405,73.7743191 22.7859922,67.3929961 25.0894942,64.2178988 C24.4669261,64.6848249 23.844358,65.1828794 23.2529183,65.7120623 L23.2529183,65.7120623 Z M62.7859922,64.2178988 C65.0894942,67.3929961 68.7626459,73.7431907 68.2645914,81.8054475 L69.8521401,82.5214008 C69.8521401,82.5214008 70.4747082,73.307393 64.6225681,65.7120623 C64.0311284,65.1828794 63.4085603,64.6848249 62.7859922,64.2178988 L62.7859922,64.2178988 L62.7859922,64.2178988 Z M44.1089494,97.463035 L46.0077821,118.256809 L77.8832685,118.256809 C77.8832685,118.256809 79.844358,104.311284 76.9182879,89.8054475 L75.2996109,89.2762646 C77.9766537,96.5914397 76.7315175,116.326848 76.7315175,116.326848 L47.7198444,116.326848 L44.9805447,85.6653696 L42.770428,85.6653696 L42.4902724,116.326848 L11.4863813,116.326848 C10.0544747,102.412451 12.2645914,89.3385214 12.2645914,89.3385214 L10.9571984,89.7120623 C8,104.249027 9.9922179,118.256809 9.9922179,118.256809 L44.1089494,118.256809 L44.1089494,97.463035 L44.1089494,97.463035 L44.1089494,97.463035 Z" id="Shape" fill="#DD002A"></path>
                        <path d="M58.2101167,59.766537 C58.2101167,59.766537 52.7315175,64.7470817 43.7042802,64.7470817 C32.9961089,64.7470817 29.6653696,59.766537 29.6653696,59.766537 L27.766537,24.8404669 L60.077821,24.8404669 L58.2101167,59.766537 L58.2101167,59.766537 L58.2101167,59.766537 Z M58.2101167,59.766537 C58.2101167,59.766537 52.7315175,64.7470817 43.7042802,64.7470817 C32.9961089,64.7470817 29.6653696,59.766537 29.6653696,59.766537 L27.766537,24.8404669 L60.077821,24.8404669 L58.2101167,59.766537 L58.2101167,59.766537 L58.2101167,59.766537 Z M58.2101167,59.766537 C58.2101167,59.766537 52.7315175,64.7470817 43.7042802,64.7470817 C32.9961089,64.7470817 29.6653696,59.766537 29.6653696,59.766537 L27.766537,24.8404669 L60.077821,24.8404669 L58.2101167,59.766537 L58.2101167,59.766537 L58.2101167,59.766537 Z" id="Shape" fill="#F4CF8C"></path>
                        <path d="M48.0311284,30.8171206 L48.8404669,29.7898833 C48.8404669,29.7898833 51.7354086,29.6342412 56.2178988,32.0311284 C56.2178988,32.0311284 52.9805447,28.0466926 48.1245136,29.385214 L48.2801556,28.5136187 L46.9105058,30.7548638 C46.9105058,30.7548638 47.4085603,33.7743191 46.8793774,35.9533074 L41.0583658,35.9533074 C40.5291829,33.7743191 41.0272374,30.7548638 41.0272374,30.7548638 L39.6575875,28.5136187 L39.8132296,29.385214 C34.9571984,28.0466926 31.7198444,32.0311284 31.7198444,32.0311284 C36.1712062,29.6342412 39.0972763,29.7898833 39.0972763,29.7898833 L39.9066148,30.8171206 C38.3501946,33.9299611 34.6770428,34.1789883 34.6770428,34.1789883 C38.536965,34.5836576 39.9377432,32.1867704 39.9377432,32.1867704 C39.7198444,34.0856031 40.1245136,36.5758755 40.1245136,36.5758755 L43.9844358,39.3151751 L44.0155642,39.2840467 L44.0466926,39.3151751 L47.9066148,36.5758755 C47.9066148,36.5758755 48.311284,34.0856031 48.0933852,32.1867704 C48.0933852,32.1867704 49.4941634,34.5836576 53.3540856,34.1789883 C53.2607004,34.1789883 49.5875486,33.9299611 48.0311284,30.8171206 L48.0311284,30.8171206 L48.0311284,30.8171206 Z" id="Shape" fill="#B27D30"></path>
                        <ellipse id="Oval" fill="#050505" cx="43.922179" cy="42.1167315" rx="5.29182879" ry="3.17509728"></ellipse>
                        <path d="M43.922179,45.4474708 C45.1361868,45.4474708 46.2256809,45.0428016 47.1284047,44.6381323 C46.5058366,43.9533074 45.3229572,43.5175097 43.922179,43.5175097 C42.5525292,43.5175097 41.3385214,43.9844358 40.7159533,44.6381323 C41.618677,45.0428016 42.7392996,45.4474708 43.922179,45.4474708 L43.922179,45.4474708 Z" id="Shape" fill="#DD002A"></path>
                        <path d="M43.922179,38.9416342 C40.9961089,38.9416342 38.6303502,40.3735409 38.6303502,42.1167315 C38.6303502,42.2101167 38.6303502,42.3035019 38.6614786,42.3968872 L49.2140078,42.3968872 C49.2140078,42.3035019 49.2451362,42.2101167 49.2451362,42.1167315 C49.2451362,40.3735409 46.8793774,38.9416342 43.922179,38.9416342 L43.922179,38.9416342 L43.922179,38.9416342 Z" id="Shape" fill="#FFFFFF"></path>
                        <path d="M43.922179,47.3463035 C42.8326848,47.3463035 41.8365759,47.1595331 40.9961089,46.8171206 C41.6809339,47.688716 42.7081712,48.2490272 43.922179,48.2490272 C45.1050584,48.2490272 46.1634241,47.688716 46.848249,46.8171206 C46.0077821,47.1595331 45.0116732,47.3463035 43.922179,47.3463035 L43.922179,47.3463035 Z M43.922179,56.8093385 C42.0856031,56.8093385 40.3735409,56.4669261 38.9416342,55.9066148 C40.0933852,57.4007782 41.8988327,58.3346304 43.922179,58.3346304 C45.9455253,58.3346304 47.7509728,57.3696498 48.9027237,55.9066148 C47.4708171,56.4669261 45.7898833,56.8093385 43.922179,56.8093385 L43.922179,56.8093385 L43.922179,56.8093385 Z" id="Shape" fill="#C98C28"></path>
                        <polygon id="Shape" fill="#CEA063" points="28.077821 30.5992218 59.766537 30.5992218 60.077821 24.8715953 27.766537 24.8715953"></polygon>
                        <path d="M60.1712062,24.8404669 L63.0038911,8.43579767 C63.0038911,8.43579767 58.7392996,0.0311284047 44.0155642,0.0311284047 C26.1478599,0.0311284047 24.8404669,8.43579767 24.8404669,8.43579767 L27.7042802,24.8404669 L60.1712062,24.8404669 L60.1712062,24.8404669 Z" id="Shape" fill="#050505"></path>
                        <polygon id="Shape" fill="#DD002A" points="26.4902724 17.8054475 27.7042802 24.8404669 60.1712062 24.8404669 61.385214 17.8054475"></polygon>
                        <polygon id="Shape" fill="#050505" points="65.0583658 28.7626459 22.8171206 28.7626459 21.5097276 24.8404669 66.3968872 24.8404669"></polygon>
                        <ellipse id="Oval" fill="#050505" cx="43.922179" cy="20.077821" rx="5.22957198" ry="5.22957198"></ellipse>
                        <path d="M43.922179,24.6536965 C41.4007782,24.6536965 39.3463035,22.5992218 39.3463035,20.077821 C39.3463035,17.5564202 41.4007782,15.5019455 43.922179,15.5019455 C46.4435798,15.5019455 48.4980545,17.5564202 48.4980545,20.077821 C48.5291829,22.5992218 46.4747082,24.6536965 43.922179,24.6536965 L43.922179,24.6536965 Z M43.922179,16.0933852 C41.7120623,16.0933852 39.9377432,17.8677043 39.9377432,20.077821 C39.9377432,22.2879377 41.7120623,24.0622568 43.922179,24.0622568 C46.1322957,24.0622568 47.9066148,22.2879377 47.9066148,20.077821 C47.9377432,17.8677043 46.1322957,16.0933852 43.922179,16.0933852 L43.922179,16.0933852 L43.922179,16.0933852 Z M43.922179,23.3774319 C42.0856031,23.3774319 40.6225681,21.8832685 40.6225681,20.077821 C40.6225681,18.2412451 42.1167315,16.7782101 43.922179,16.7782101 C45.7587549,16.7782101 47.2217899,18.2723735 47.2217899,20.077821 C47.2529183,21.8832685 45.7587549,23.3774319 43.922179,23.3774319 L43.922179,23.3774319 Z M43.922179,17.1828794 C42.3346304,17.1828794 41.0583658,18.459144 41.0583658,20.0466926 C41.0583658,21.6342412 42.3346304,22.9105058 43.922179,22.9105058 C45.5097276,22.9105058 46.7859922,21.6342412 46.7859922,20.0466926 C46.8171206,18.4902724 45.5097276,17.1828794 43.922179,17.1828794 L43.922179,17.1828794 Z M44.7626459,18.8949416 L46.2568093,17.8054475 L45.1050584,19.2684825 L46.9105058,18.8015564 L45.3229572,19.766537 L47.1595331,19.9844358 L45.3229572,20.2957198 L47.0038911,21.1673152 L45.1984436,20.7937743 L46.4124514,22.1945525 L44.8560311,21.1984436 L45.4785992,22.9416342 L44.3891051,21.4474708 L44.3579767,23.3151751 L43.8910506,21.5097276 L43.1750973,23.2217899 L43.3618677,21.385214 L42.0856031,22.7237354 L42.92607,21.07393 L41.2451362,21.8521401 L42.6459144,20.6070039 L40.7782101,20.7315175 L42.5214008,20.077821 L40.7470817,19.5175097 L42.614786,19.5486381 L41.151751,18.3968872 L42.8638132,19.0817121 L41.9299611,17.4941634 L43.2684825,18.770428 L42.9571984,16.9338521 L43.766537,18.614786 L44.1400778,16.8093385 L44.2957198,18.6770428 L45.3229572,17.1206226 L44.7626459,18.8949416 L44.7626459,18.8949416 Z" id="Shape" fill="#DD002A"></path>
                        <path d="M44.9182879,20.077821 C44.9182879,20.6381323 44.4824903,21.07393 43.922179,21.07393 C43.3618677,21.07393 42.92607,20.6381323 42.92607,20.077821 C42.92607,19.5175097 43.3618677,19.0817121 43.922179,19.0817121 C44.4824903,19.0817121 44.9182879,19.5175097 44.9182879,20.077821 L44.9182879,20.077821 Z" id="Shape" fill="#050505"></path>
                        <path d="M43.7042802,64.7782101 C32.9961089,64.7782101 29.6653696,59.7976654 29.6653696,59.7976654 L30.0389105,66.8949416 C30.0389105,66.8949416 33.2451362,71.7509728 43.7042802,71.7509728 C52.4824903,71.7509728 57.8054475,66.8949416 57.8054475,66.8949416 L58.2101167,59.766537 C58.1789883,59.766537 52.7003891,64.7782101 43.7042802,64.7782101 L43.7042802,64.7782101 L43.7042802,64.7782101 Z" id="Shape" fill="#DD002A"></path>
                        <path d="M43.922179,71.6264591 C44.1712062,70.692607 44.3268482,69.5097276 44.3268482,68.233463 C44.3268482,66.92607 44.1712062,65.7431907 43.922179,64.8404669 C43.6731518,65.7743191 43.5175097,66.9571984 43.5175097,68.233463 C43.5175097,69.5097276 43.6731518,70.7237354 43.922179,71.6264591 L43.922179,71.6264591 L43.922179,71.6264591 Z" id="Shape" fill="#050505"></path>
                        <ellipse id="Oval" fill="#930023" cx="46.4747082" cy="68.4513619" rx="0.964980545" ry="0.964980545"></ellipse>
                        <ellipse id="Oval" fill="#FFFFFF" cx="46.2568093" cy="68.233463" rx="0.964980545" ry="0.964980545"></ellipse>
                        <path d="M47.4085603,78.0077821 L40.4669261,78.0077821 C39.3774319,78.0077821 38.4747082,78.9105058 38.4747082,80 L38.4747082,84.9494163 C38.4747082,86.0389105 39.3774319,86.9416342 40.4669261,86.9416342 L47.4085603,86.9416342 C48.4980545,86.9416342 49.4007782,86.0389105 49.4007782,84.9494163 L49.4007782,80 C49.4007782,78.8793774 48.4980545,78.0077821 47.4085603,78.0077821 L47.4085603,78.0077821 Z M46.8793774,80.7782101 L46.8793774,84.1712062 C46.8793774,84.3579767 46.7237354,84.5447471 46.5058366,84.5447471 L41.3696498,84.5447471 C41.1828794,84.5447471 40.9961089,84.3891051 40.9961089,84.1712062 L40.9961089,80.7782101 C40.9961089,80.5914397 41.151751,80.4046693 41.3696498,80.4046693 L46.5058366,80.4046693 C46.692607,80.4046693 46.8793774,80.5603113 46.8793774,80.7782101 L46.8793774,80.7782101 L46.8793774,80.7782101 Z" id="Shape" fill="#FFB000"></path>
                        <polygon id="Shape" fill="#C98C28" points="40.0933852 36.5758755 43.922179 39.2840467 43.9533074 39.2529183 43.9844358 39.2840467 47.8132296 36.5758755 40.0933852 36.5758755"></polygon>
                        <path d="M43.922179,38.692607 C43.922179,38.692607 40.6848249,34.8326848 33.0894942,36.7315175 L21.6031128,48.0311284 C21.6031128,48.0311284 25.7431907,51.1128405 32.2178988,50.2723735 C38.692607,49.4319066 43.9844358,42.5214008 43.922179,38.692607 L43.922179,38.692607 Z M43.922179,38.692607 C43.922179,38.692607 47.1595331,34.8326848 54.7548638,36.7315175 C62.3501946,38.6303502 66.2412451,48.0311284 66.2412451,48.0311284 C66.2412451,48.0311284 62.1011673,51.1128405 55.6264591,50.2723735 C49.151751,49.4319066 43.8910506,42.5214008 43.922179,38.692607 L43.922179,38.692607 L43.922179,38.692607 Z" id="Shape" fill="#4F1907"></path>
                        <polygon id="Shape" fill="#DD002A" points="59.6731518 71.688716 60.3579767 71.688716 59.1439689 73.151751 57.9610895 71.688716 58.6459144 71.688716 58.6459144 71.0350195 56.0933852 71.0350195 56.0933852 71.688716 57.0894942 71.688716 58.770428 73.7743191 58.770428 75.0817121 57.7743191 75.0817121 57.7743191 75.7354086 60.4513619 75.7354086 60.4513619 75.0817121 59.4552529 75.0817121 59.4552529 73.7743191 61.1361868 71.688716 62.1322957 71.688716 62.1322957 71.0350195 59.5797665 71.0350195"></polygon>
                    </g>
                </g>
            </g>
        </g>
    </g>
</svg>